<?xml version="1.0" encoding="utf-8"?>
<!-- Generator: Adobe Illustrator 15.1.0, SVG Export Plug-In . SVG Version: 6.00 Build 0)  -->
<!DOCTYPE svg PUBLIC "-//W3C//DTD SVG 1.1//EN" "http://www.w3.org/Graphics/SVG/1.1/DTD/svg11.dtd">
<svg version="1.1" id="Layer_1" xmlns="http://www.w3.org/2000/svg" xmlns:xlink="http://www.w3.org/1999/xlink" x="0px" y="0px"
	 width="512px" height="512px" viewBox="0 0 512 512" enable-background="new 0 0 512 512" xml:space="preserve">
<g>
	<path fill-rule="evenodd" clip-rule="evenodd" fill="#2A783B" d="M256.052,509.354l126.69-126.672
		c64.092-64.109,69.212-165.75,15.36-235.851L254.611,290.321l-17.885-17.885c-9.85-9.85-9.85-25.939,0-35.771l126.672-126.69
		L327.61,74.196L200.938,200.877c-30.312,30.312-30.312,79.915,0,110.246l55.114,55.113l127.224-127.224
		c5.049,38.366-7.059,78.617-36.322,107.88l-90.901,90.902l-90.894-90.902c-49.922-49.922-49.922-131.881,0-181.786
		c42.225-42.242,84.458-84.458,126.682-126.681l-35.788-35.78L129.379,129.318c-69.674,69.675-69.674,183.671,0,253.363
		L256.052,509.354z"/>
</g>
</svg>
