<?xml version="1.0" encoding="utf-8"?>
<!-- Generator: Adobe Illustrator 15.1.0, SVG Export Plug-In . SVG Version: 6.00 Build 0)  -->
<!DOCTYPE svg PUBLIC "-//W3C//DTD SVG 1.1//EN" "http://www.w3.org/Graphics/SVG/1.1/DTD/svg11.dtd">
<svg version="1.1" id="Layer_1" xmlns="http://www.w3.org/2000/svg" xmlns:xlink="http://www.w3.org/1999/xlink" x="0px" y="0px"
	 width="150px" height="58px" viewBox="0 0 150 58" enable-background="new 0 0 150 58" xml:space="preserve">
<g>
	<path fill-rule="evenodd" clip-rule="evenodd" fill="#2A783B" d="M128.054,56.833l13.918-13.916
		c7.041-7.043,7.604-18.209,1.688-25.91l-15.764,15.764l-1.965-1.965c-1.082-1.082-1.082-2.85,0-3.93l13.916-13.918l-3.932-3.931
		l-13.916,13.917c-3.33,3.33-3.33,8.779,0,12.111l6.055,6.055l13.977-13.977c0.555,4.215-0.775,8.637-3.99,11.852l-9.986,9.986
		l-9.985-9.986c-5.484-5.484-5.484-14.488,0-19.971c4.639-4.641,9.278-9.278,13.917-13.917l-3.932-3.931l-13.916,13.916
		c-7.654,7.654-7.654,20.178,0,27.834L128.054,56.833z"/>
</g>
<g>
	<g>
		<path fill="#232323" d="M2.289,25.562l1.353-2.053c1.451,1.076,2.979,1.627,4.33,1.627c1.301,0,2.052-0.551,2.052-1.428v-0.049
			c0-1.025-1.401-1.377-2.954-1.854c-1.951-0.549-4.129-1.35-4.129-3.877v-0.051c0-2.504,2.077-4.029,4.705-4.029
			c1.651,0,3.453,0.574,4.855,1.502l-1.201,2.15c-1.276-0.775-2.628-1.25-3.729-1.25c-1.177,0-1.853,0.551-1.853,1.303v0.049
			c0,0.977,1.428,1.377,2.979,1.877c1.928,0.602,4.104,1.477,4.104,3.854v0.051c0,2.779-2.151,4.154-4.905,4.154
			C6.019,27.538,3.942,26.862,2.289,25.562z"/>
		<path fill="#232323" d="M15.03,23.634v-6.957h-1.677v-2.604h1.677v-3.629h3.029v3.629h3.553v2.604H18.06v6.482
			c0,1.176,0.6,1.65,1.627,1.65c0.675,0,1.275-0.148,1.877-0.449v2.477c-0.752,0.426-1.577,0.676-2.729,0.676
			C16.607,27.513,15.03,26.538,15.03,23.634z"/>
		<path fill="#232323" d="M23.29,22.483v-8.41h3.027v7.508c0,2.053,1.027,3.205,2.83,3.205c1.752,0,2.977-1.203,2.977-3.254v-7.459
			h3.055v13.215h-3.055v-2.053c-0.85,1.252-2.076,2.328-4.129,2.328C25.017,27.563,23.29,25.562,23.29,22.483z"/>
		<path fill="#232323" d="M40.736,25.235v2.053h-3.028V9.019h3.028v7.258c0.976-1.377,2.352-2.479,4.505-2.479
			c3.104,0,6.131,2.453,6.131,6.859v0.049c0,4.379-3.002,6.857-6.131,6.857C43.039,27.563,41.662,26.462,40.736,25.235z
			 M48.294,20.706v-0.049c0-2.555-1.727-4.23-3.779-4.23c-2.052,0-3.854,1.701-3.854,4.23v0.049c0,2.527,1.802,4.229,3.854,4.229
			C46.592,24.935,48.294,23.308,48.294,20.706z"/>
		<path fill="#232323" d="M55.801,25.235v2.053h-3.028V9.019h3.028v7.258c0.976-1.377,2.352-2.479,4.505-2.479
			c3.104,0,6.131,2.453,6.131,6.859v0.049c0,4.379-3.003,6.857-6.131,6.857C58.104,27.563,56.726,26.462,55.801,25.235z
			 M63.358,20.706v-0.049c0-2.555-1.727-4.23-3.779-4.23c-2.052,0-3.854,1.701-3.854,4.23v0.049c0,2.527,1.802,4.229,3.854,4.229
			C61.656,24.935,63.358,23.308,63.358,20.706z"/>
		<path fill="#232323" d="M67.589,20.757v-0.051c0-3.779,3.004-6.908,7.061-6.908c4.053,0,7.031,3.078,7.031,6.859v0.049
			c0,3.754-3.004,6.883-7.084,6.883C70.569,27.589,67.589,24.509,67.589,20.757z M78.653,20.757v-0.051
			c0-2.328-1.678-4.254-4.057-4.254c-2.426,0-3.979,1.902-3.979,4.205v0.049c0,2.301,1.676,4.229,4.031,4.229
			C77.101,24.935,78.653,23.034,78.653,20.757z"/>
		<path fill="#232323" d="M83.509,14.073h3.029v2.979c0.826-1.977,2.354-3.328,4.68-3.229v3.203h-0.176
			c-2.652,0-4.504,1.729-4.504,5.232v5.029h-3.029V14.073z"/>
		<path fill="#232323" d="M92.595,14.073h3.029v2.027c0.852-1.227,2.076-2.303,4.129-2.303c2.979,0,4.705,2.002,4.705,5.057v8.434
			h-3.029V19.78c0-2.053-1.025-3.229-2.826-3.229c-1.752,0-2.979,1.227-2.979,3.277v7.459h-3.029V14.073z"/>
	</g>
	<g>
		<path fill="#333333" d="M35.7,47.259l0.838-1.436c1.412,1.029,2.99,1.58,4.762,1.58c2.727,0,4.498-1.508,4.498-4.402v-1.459
			c-1.078,1.436-2.584,2.607-4.857,2.607c-2.967,0-5.814-2.225-5.814-5.791v-0.047c0-3.613,2.871-5.838,5.814-5.838
			c2.32,0,3.828,1.148,4.832,2.488v-2.225h1.844v10.215c0,1.914-0.574,3.375-1.58,4.379c-1.1,1.102-2.752,1.65-4.713,1.65
			C39.265,48.981,37.351,48.407,35.7,47.259z M45.845,38.335v-0.047c0-2.537-2.201-4.188-4.545-4.188
			c-2.346,0-4.283,1.627-4.283,4.162v0.049c0,2.488,1.986,4.211,4.283,4.211C43.644,42.522,45.845,40.823,45.845,38.335z"/>
		<path fill="#333333" d="M49.771,38.981v-0.049c0-3.492,2.727-6.459,6.459-6.459c3.709,0,6.436,2.918,6.436,6.412v0.047
			c0,3.494-2.75,6.461-6.482,6.461C52.474,45.394,49.771,42.474,49.771,38.981z M60.776,38.981v-0.049
			c0-2.654-1.986-4.832-4.594-4.832c-2.68,0-4.523,2.178-4.523,4.785v0.047c0,2.656,1.963,4.811,4.57,4.811
			C58.909,43.743,60.776,41.589,60.776,38.981z"/>
		<path fill="#333333" d="M64.032,38.981v-0.049c0-3.492,2.727-6.459,6.459-6.459c3.709,0,6.436,2.918,6.436,6.412v0.047
			c0,3.494-2.75,6.461-6.482,6.461C66.735,45.394,64.032,42.474,64.032,38.981z M75.038,38.981v-0.049
			c0-2.654-1.986-4.832-4.594-4.832c-2.68,0-4.523,2.178-4.523,4.785v0.047c0,2.656,1.963,4.811,4.57,4.811
			C73.171,43.743,75.038,41.589,75.038,38.981z"/>
		<path fill="#333333" d="M78.341,38.958v-0.049c0-4.043,2.941-6.436,5.908-6.436c2.297,0,3.781,1.244,4.738,2.631V21.64h1.842
			v23.467h-1.842v-2.488c-1.006,1.482-2.465,2.752-4.738,2.752C81.282,45.37,78.341,43.024,78.341,38.958z M89.06,38.933v-0.047
			c0-2.848-2.178-4.762-4.475-4.762c-2.393,0-4.355,1.771-4.355,4.762v0.047c0,2.92,2.035,4.785,4.355,4.785
			C86.882,43.718,89.06,41.78,89.06,38.933z"/>
		<path fill="#333333" d="M92.72,43.526l0.934-1.314c1.34,1.004,2.824,1.578,4.283,1.578c1.482,0,2.561-0.766,2.561-1.961V41.78
			c0-1.244-1.461-1.723-3.088-2.178c-1.938-0.549-4.09-1.219-4.09-3.492v-0.049c0-2.129,1.77-3.541,4.211-3.541
			c1.506,0,3.182,0.527,4.449,1.365l-0.838,1.387c-1.148-0.742-2.463-1.195-3.66-1.195c-1.459,0-2.393,0.766-2.393,1.793v0.049
			c0,1.172,1.531,1.627,3.182,2.129c1.914,0.574,3.973,1.316,3.973,3.541v0.049c0,2.344-1.938,3.707-4.402,3.707
			C96.069,45.345,94.108,44.651,92.72,43.526z"/>
	</g>
</g>
</svg>
